<svg xmlns="http://www.w3.org/2000/svg" version="1.1" xmlns:xlink="http://www.w3.org/1999/xlink" xmlns:svgjs="http://svgjs.com/svgjs" width="256" height="256"><svg xmlns="http://www.w3.org/2000/svg" width="256" height="256" viewBox="0 0 100 100"><path d="M39.87 63.51L39.87 63.51Q39.87 71.73 33.96 76.46Q28.04 81.19 17.50 81.19L17.50 81.19Q7.79 81.19 0.32 77.54L0.32 77.54L0.32 65.58Q6.46 68.32 10.72 69.44Q14.97 70.57 18.50 70.57L18.50 70.57Q22.73 70.57 24.99 68.95Q27.26 67.33 27.26 64.13L27.26 64.13Q27.26 62.35 26.26 60.96Q25.26 59.57 23.33 58.28Q21.40 56.99 15.47 54.17L15.47 54.17Q9.91 51.56 7.13 49.15Q4.35 46.74 2.69 43.55Q1.03 40.35 1.03 36.08L1.03 36.08Q1.03 28.02 6.48 23.42Q11.94 18.81 21.57 18.81L21.57 18.81Q26.30 18.81 30.60 19.93Q34.89 21.05 39.58 23.08L39.58 23.08L35.43 33.09Q30.58 31.09 27.40 30.31Q24.23 29.52 21.15 29.52L21.15 29.52Q17.50 29.52 15.55 31.22Q13.60 32.92 13.60 35.66L13.60 35.66Q13.60 37.36 14.39 38.63Q15.18 39.89 16.90 41.08Q18.62 42.26 25.06 45.33L25.06 45.33Q33.56 49.40 36.72 53.49Q39.87 57.57 39.87 63.51ZM78.35 46.53L99.68 80.36L85.07 80.36L69.17 54.79L63.74 58.70L63.74 80.36L50.87 80.36L50.87 19.68L63.74 19.68L63.74 47.45L68.80 40.31L85.24 19.68L99.51 19.68L78.35 46.53Z" fill="#4da0f4"></path></svg><style>@media (prefers-color-scheme: light) { :root { filter: none; } }
@media (prefers-color-scheme: dark) { :root { filter: contrast(1) brightness(1.2); } }
</style></svg>